<?xml version="1.0" encoding="UTF-8"?>
<svg id="Layer_1" data-name="Layer 1" xmlns="http://www.w3.org/2000/svg" xmlns:xlink="http://www.w3.org/1999/xlink" version="1.1" viewBox="0 0 597.5 1043.3">
  <defs>
    <style>
      .cls-1 {
        clip-path: url(#clippath);
      }

      .cls-2 {
        fill: none;
      }

      .cls-2, .cls-3, .cls-4, .cls-5, .cls-6 {
        stroke-width: 0px;
      }

      .cls-3 {
        fill: #000;
        fill-opacity: .2;
      }

      .cls-4 {
        fill-rule: evenodd;
      }

      .cls-4, .cls-5 {
        fill: #fff;
      }

      .cls-6 {
        fill: #00880e;
      }
    </style>
    <clipPath id="clippath">
      <rect class="cls-2" x="128" y="431.6" width="341.4" height="341.4"/>
    </clipPath>
  </defs>
  <ellipse class="cls-3" cx="298.7" cy="1007.7" rx="99.6" ry="35.6"/>
  <path class="cls-4" d="M298.7,303.6c165,0,298.7,133.7,298.7,298.7s-78.6,234.6-189.7,278.2l-92,125.8c-1.9,2.6-4.5,4.8-7.4,6.3-3,1.5-6.2,2.3-9.6,2.3s-6.6-.8-9.6-2.3c-3-1.5-5.5-3.6-7.4-6.3l-92-125.8C78.6,836.9,0,728.8,0,602.3s133.7-298.7,298.7-298.7Z"/>
  <path class="cls-6" d="M540.6,602.3c0-133.6-108.3-241.8-241.8-241.8s-241.8,108.3-241.8,241.8,108.3,241.8,241.8,241.8,241.8-108.3,241.8-241.8Z"/>
  <g class="cls-1">
    <path class="cls-5" d="M397.2,517.1c-2.8-8.4-10.8-14.4-20.2-14.4h-156.5c-9.4,0-17.2,6-20.2,14.4l-28,80.7c-1,3-1.6,6.1-1.6,9.4v101.9c0,11.8,9.5,21.3,21.3,21.3s21.3-9.5,21.3-21.3v-7.1h170.7v7.1c0,11.7,9.5,21.3,21.3,21.3s21.3-9.5,21.3-21.3v-101.9c0-3.1-.6-6.4-1.6-9.4l-28-80.7ZM220.5,659.2c-11.8,0-21.3-9.5-21.3-21.3s9.5-21.3,21.3-21.3,21.3,9.5,21.3,21.3-9.5,21.3-21.3,21.3ZM377,659.2c-11.8,0-21.3-9.5-21.3-21.3s9.5-21.3,21.3-21.3,21.3,9.5,21.3,21.3-9.5,21.3-21.3,21.3ZM199.2,588.1l18.1-54.3c2-5.7,7.4-9.7,13.5-9.7h136c6.1,0,11.5,4,13.5,9.7l18.1,54.3h-199.2Z"/>
  </g>
  <g>
    <path class="cls-5" d="M492.5,80.5c-9.1,9.1-17.8,17.8-27.1,27.2-46.5-44.5-102.1-68.4-167-68.4-64.7,0-120.1,23.7-166.3,67.9-9.2-9.2-18.1-18.2-27.1-27.3,102.4-106.7,284.5-106.7,387.5.6Z"/>
    <path class="cls-5" d="M187.2,163.2c-9-9.1-18-18.2-27-27.3,74.5-76.9,203.7-75.3,276-.3-9.1,8.9-18.1,17.8-27.2,26.7-61.7-60.4-160.8-58.4-221.8.8Z"/>
    <path class="cls-5" d="M381,191.7c-9.2,9.2-18.1,18.1-27.3,27.4-15.3-14.2-33.7-22.3-55.1-22.3-21.4,0-39.9,7.8-55.1,22.2-9.1-9.3-17.9-18.2-26.7-27.2,33.3-39.7,113.9-51.1,164.3-.2Z"/>
    <path class="cls-5" d="M299.6,275.6c-9.8-9.8-18.7-18.7-27.6-27.6,11-15.2,38.2-15.6,54.4,1-4.8,4.3-9.7,8.4-14.3,13-4.4,4.4-8.5,9.2-12.5,13.6Z"/>
  </g>
  <g>
    <path class="cls-5" d="M275.2,404.6l27.5,70.8h-14.1l-7.1-19.9h-27c-.6,1.7-1.2,3.4-1.8,5-.6,1.6-1.2,3.3-1.7,4.9-.6,1.6-1.1,3.3-1.7,4.9-.6,1.7-1.2,3.3-1.8,5h-13.1l27.1-70.8h13.6ZM277.3,444.6l-9.3-26-9.1,26h18.4Z"/>
    <path class="cls-5" d="M324.3,475.3l-24.5-70.8h13.6l18.1,55.4,18.3-55.4h13.2l-25,70.8h-13.8Z"/>
  </g>
</svg>