<svg width="66" height="77" viewBox="0 0 66 77" fill="none" xmlns="http://www.w3.org/2000/svg">
<g filter="url(#filter0_f_340_484)">
<ellipse cx="33" cy="69.9969" rx="9.33333" ry="3.33317" fill="black" fill-opacity="0.2"/>
</g>
<g filter="url(#filter1_d_340_484)">
<path fill-rule="evenodd" clip-rule="evenodd" d="M33 4C48.464 4 61 16.5354 61 31.9987C61 43.8548 53.6303 53.9898 43.2218 58.073L34.5948 69.8644C34.415 70.1112 34.1762 70.3127 33.8986 70.4518C33.621 70.5908 33.3128 70.6635 33 70.6635C32.6872 70.6635 32.379 70.5908 32.1014 70.4518C31.8238 70.3127 31.5851 70.1112 31.4052 69.8644L22.7782 58.073C12.3697 53.9898 5 43.8548 5 31.9987C5 16.5354 17.536 4 33 4Z" fill="white"/>
</g>
<path d="M55.6667 31.9987C55.6667 19.4809 45.5185 9.33313 33 9.33313C20.4816 9.33313 10.3333 19.4809 10.3333 31.9987C10.3333 44.5166 20.4816 54.6643 33 54.6643C45.5185 54.6643 55.6667 44.5166 55.6667 31.9987Z" fill="#CC0000"/>
<path d="M45.4011 40.1707L38.6 33.3696L35.6813 36.2883L42.4824 43.0894C43.2947 43.9017 44.6026 43.9017 45.4011 43.0894C46.1996 42.2772 46.1996 40.9692 45.4011 40.1707ZM40.8028 29.1705C43.4599 29.1705 45.6214 27.009 45.6214 24.3519C45.6214 23.5534 45.4011 22.81 45.0569 22.1491L41.3397 25.8663L39.2884 23.815L43.0056 20.0978C42.3447 19.7536 41.6013 19.5333 40.8028 19.5333C38.1457 19.5333 35.9842 21.6948 35.9842 24.3519C35.9842 24.9164 36.0943 25.4533 36.2733 25.9489L33.7263 28.4959L31.2757 26.0453C31.4033 25.9179 31.5046 25.7667 31.5737 25.6001C31.6428 25.4336 31.6783 25.255 31.6783 25.0747C31.6783 24.8944 31.6428 24.7159 31.5737 24.5493C31.5046 24.3828 31.4033 24.2315 31.2757 24.1041L30.2982 23.1266L33.2169 20.2079C32.4425 19.4344 31.3927 19 30.2982 19C29.2037 19 28.1539 19.4344 27.3795 20.2079L23.4971 24.1041C23.3694 24.2315 23.2682 24.3828 23.1991 24.5493C23.13 24.7159 23.0945 24.8944 23.0945 25.0747C23.0945 25.255 23.13 25.4336 23.1991 25.6001C23.2682 25.7667 23.3694 25.9179 23.4971 26.0453L24.4746 27.0228H20.9776C20.716 27.0228 20.4682 27.1192 20.2893 27.3119C20.1977 27.4016 20.1249 27.5087 20.0753 27.627C20.0256 27.7452 20 27.8721 20 28.0003C20 28.1285 20.0256 28.2554 20.0753 28.3736C20.1249 28.4918 20.1977 28.5989 20.2893 28.6887L23.7862 32.1856C23.8759 32.2772 23.983 32.3499 24.1012 32.3996C24.2194 32.4493 24.3464 32.4749 24.4746 32.4749C24.6028 32.4749 24.7297 32.4493 24.8479 32.3996C24.9661 32.3499 25.0732 32.2772 25.1629 32.1856C25.3419 32.0066 25.4521 31.7588 25.4521 31.4972V28.0003L26.4158 28.964C26.9527 29.5009 27.8201 29.5009 28.357 28.964L30.8076 31.4146L22.0653 40.157C21.8721 40.3478 21.7188 40.575 21.6141 40.8255C21.5094 41.076 21.4556 41.3448 21.4556 41.6163C21.4556 41.8878 21.5094 42.1566 21.6141 42.4071C21.7188 42.6576 21.8721 42.8849 22.0653 43.0757C22.8775 43.8879 24.1855 43.8879 24.984 43.0757L39.192 28.8814C39.7014 29.0604 40.2383 29.1705 40.8028 29.1705Z" fill="white"/>
<defs>
<filter id="filter0_f_340_484" x="21.6667" y="64.6637" width="22.6667" height="10.6664" filterUnits="userSpaceOnUse" color-interpolation-filters="sRGB">
<feFlood flood-opacity="0" result="BackgroundImageFix"/>
<feBlend mode="normal" in="SourceGraphic" in2="BackgroundImageFix" result="shape"/>
<feGaussianBlur stdDeviation="1" result="effect1_foregroundBlur_340_484"/>
</filter>
<filter id="filter1_d_340_484" x="0" y="0" width="66" height="76.6635" filterUnits="userSpaceOnUse" color-interpolation-filters="sRGB">
<feFlood flood-opacity="0" result="BackgroundImageFix"/>
<feColorMatrix in="SourceAlpha" type="matrix" values="0 0 0 0 0 0 0 0 0 0 0 0 0 0 0 0 0 0 127 0" result="hardAlpha"/>
<feOffset dy="1"/>
<feGaussianBlur stdDeviation="2.5"/>
<feComposite in2="hardAlpha" operator="out"/>
<feColorMatrix type="matrix" values="0 0 0 0 0 0 0 0 0 0 0 0 0 0 0 0 0 0 0.1 0"/>
<feBlend mode="normal" in2="BackgroundImageFix" result="effect1_dropShadow_340_484"/>
<feBlend mode="normal" in="SourceGraphic" in2="effect1_dropShadow_340_484" result="shape"/>
</filter>
</defs>
</svg>
