<svg width="52" height="61" viewBox="0 0 52 61" fill="none" xmlns="http://www.w3.org/2000/svg">
<g filter="url(#filter0_f_751_25691)">
<ellipse cx="26" cy="54.4071" rx="7" ry="2.5" fill="black" fill-opacity="0.2"/>
</g>
<g filter="url(#filter1_d_751_25691)">
<path fill-rule="evenodd" clip-rule="evenodd" d="M26 4.9071C37.598 4.9071 47 14.3091 47 25.9071C47 34.7997 41.4727 42.4013 33.6663 45.4638L27.1961 54.3078C27.0612 54.4929 26.8821 54.644 26.6739 54.7483C26.4657 54.8526 26.2346 54.9071 26 54.9071C25.7654 54.9071 25.5343 54.8526 25.3261 54.7483C25.1179 54.644 24.9388 54.4929 24.8039 54.3078L18.3337 45.4638C10.5273 42.4013 5 34.7997 5 25.9071C5 14.3091 14.402 4.9071 26 4.9071Z" fill="white"/>
</g>
<path d="M43 25.9071C43 16.5183 35.3888 8.9071 26 8.9071C16.6112 8.9071 9 16.5183 9 25.9071C9 35.2959 16.6112 42.9071 26 42.9071C35.3888 42.9071 43 35.2959 43 25.9071Z" fill="#17A5D3"/>
<g clip-path="url(#clip0_751_25691)">
<path d="M26.0001 24.9071C24.9001 24.9071 24.0001 25.8071 24.0001 26.9071C24.0001 28.0071 24.9001 28.9071 26.0001 28.9071C27.1001 28.9071 28.0001 28.0071 28.0001 26.9071C28.0001 25.8071 27.1001 24.9071 26.0001 24.9071ZM32.0001 26.9071C32.0001 23.3471 28.8901 20.5071 25.2501 20.9571C22.6301 21.2771 20.4701 23.3671 20.0701 25.9771C19.7401 28.1271 20.5601 30.0871 22.0001 31.3771C22.4801 31.8071 23.2301 31.7071 23.5601 31.1471L23.5701 31.1371C23.8101 30.7171 23.7101 30.2071 23.3501 29.8771C22.3201 28.9471 21.7601 27.5071 22.1301 25.9371C22.4601 24.5171 23.6101 23.3671 25.0301 23.0271C27.6501 22.3971 30.0001 24.3771 30.0001 26.9071C30.0001 28.0871 29.4801 29.1371 28.6701 29.8671C28.3101 30.1871 28.2001 30.7071 28.4401 31.1271L28.4501 31.1371C28.7601 31.6671 29.4801 31.8271 29.9501 31.4171C31.2001 30.3171 32.0001 28.7071 32.0001 26.9071ZM24.8301 16.9771C20.2101 17.4971 16.4801 21.3071 16.0501 25.9371C15.7001 29.6371 17.3701 32.9571 20.0701 34.9471C20.5501 35.2971 21.2301 35.1471 21.5301 34.6371C21.7801 34.2071 21.6701 33.6471 21.2701 33.3471C18.9901 31.6571 17.6201 28.7971 18.1101 25.6471C18.6501 22.1471 21.5701 19.3571 25.0901 18.9671C29.9101 18.4171 34.0001 22.1871 34.0001 26.9071C34.0001 29.5571 32.7101 31.8871 30.7301 33.3471C30.3301 33.6471 30.2201 34.1971 30.4701 34.6371C30.7701 35.1571 31.4501 35.2971 31.9301 34.9471C34.4001 33.1271 36.0001 30.2071 36.0001 26.9071C36.0001 20.9971 30.8701 16.2871 24.8301 16.9771Z" fill="white"/>
</g>
<defs>
<filter id="filter0_f_751_25691" x="17" y="49.9071" width="18" height="9" filterUnits="userSpaceOnUse" color-interpolation-filters="sRGB">
<feFlood flood-opacity="0" result="BackgroundImageFix"/>
<feBlend mode="normal" in="SourceGraphic" in2="BackgroundImageFix" result="shape"/>
<feGaussianBlur stdDeviation="1" result="effect1_foregroundBlur_751_25691"/>
</filter>
<filter id="filter1_d_751_25691" x="0" y="0.907104" width="52" height="60" filterUnits="userSpaceOnUse" color-interpolation-filters="sRGB">
<feFlood flood-opacity="0" result="BackgroundImageFix"/>
<feColorMatrix in="SourceAlpha" type="matrix" values="0 0 0 0 0 0 0 0 0 0 0 0 0 0 0 0 0 0 127 0" result="hardAlpha"/>
<feOffset dy="1"/>
<feGaussianBlur stdDeviation="2.5"/>
<feComposite in2="hardAlpha" operator="out"/>
<feColorMatrix type="matrix" values="0 0 0 0 0 0 0 0 0 0 0 0 0 0 0 0 0 0 0.1 0"/>
<feBlend mode="normal" in2="BackgroundImageFix" result="effect1_dropShadow_751_25691"/>
<feBlend mode="normal" in="SourceGraphic" in2="effect1_dropShadow_751_25691" result="shape"/>
</filter>
<clipPath id="clip0_751_25691">
<rect width="24" height="24" fill="white" transform="translate(14 13.9071)"/>
</clipPath>
</defs>
</svg>
